#!OML:ASF H:\LiuWeirdWalks\Patient Classification 1\Patient 1\Session 1\male.ASF
:FULLY-SPECIFIED
:DEGREES
604
root -0.327075 18.1271 -18.2513 3.84612 1.11623 5.65937
lowerback 13.1286 0.365397 7.13571
upperback 2.32326 1.92966 8.13018
thorax -4.97502 0.893528 4.27325
lowerneck -28.6009 2.34842 9.91635
upperneck 27.5361 6.70581 -22.808
head 16.0565 0.75574 -10.4955
rclavicle -1.59028e-015 9.54166e-015
rhumerus -20.1835 -35.8849 -23.8396
rradius 27.4477
rwrist 5.81582
rhand -25.5949 3.29143
rfingers 7.12502
rthumb 0.93705 -26.6863
lclavicle -1.59028e-015 9.54166e-015
lhumerus -17.1904 27.2421 32.7929
lradius 38.36
lwrist 7.89536
lhand -21.708 -3.26166
lfingers 7.12502
lthumb 4.69068 26.6664
rfemur -15.2126 -4.98513 13.5362
rtibia 34.0693
rfoot -15.6351 -12.9822
rtoes -4.38959
lfemur -16.3831 1.73536 -19.8461
ltibia 39.8629
lfoot -9.46595 14.5127
ltoes -16.27
605
root -0.330686 18.1292 -18.1976 3.77982 1.00476 5.52091
lowerback 13.1146 0.346666 7.11547
upperback 2.34588 1.89145 8.03167
thorax -4.93897 0.874684 4.1839
lowerneck -28.5139 2.34418 9.8555
upperneck 27.5217 6.66778 -22.6292
head 16.0004 0.75628 -10.39
rclavicle 1.59028e-015 7.95139e-014
rhumerus -20.3443 -36.0699 -23.1891
rradius 27.4982
rwrist 5.84403
rhand -25.6328 3.20213
rfingers 7.12502
rthumb 0.900434 -26.7757
lclavicle 1.59028e-015 7.95139e-014
lhumerus -17.4745 27.3264 32.6084
lradius 38.2519
lwrist 7.9556
lhand -21.7436 -3.15625
lfingers 7.12502
lthumb 4.65635 26.7726
rfemur -14.8905 -4.77104 13.7103
rtibia 33.92
rfoot -15.647 -13.1612
rtoes -4.46575
lfemur -16.7208 1.90671 -19.6295
ltibia 39.5142
lfoot -9.50294 14.6962
ltoes -16.2231
606
root -0.334571 18.1316 -18.1436 3.71517 0.914308 5.36182
lowerback 13.0788 0.320427 7.11352
upperback 2.37703 1.8417 7.92372
thorax -4.88065 0.850274 4.076
lowerneck -28.4824 2.35945 9.83811
upperneck 27.5219 6.64403 -22.4675
head 15.9712 0.763969 -10.3053
rclavicle 7.95139e-015 6.36111e-015
rhumerus -20.4902 -36.2689 -22.5219
rradius 27.5525
rwrist 5.83776
rhand -25.6793 3.10359
rfingers 7.12502
rthumb 0.855439 -26.8744
lclavicle 7.95139e-015 6.36111e-015
lhumerus -17.7707 27.4094 32.446
lradius 38.1587
lwrist 8.03036
lhand -21.8021 -3.01949
lfingers 7.12502
lthumb 4.59983 26.9106
rfemur -14.557 -4.56813 13.9065
rtibia 33.7582
rfoot -15.6572 -13.3289
rtoes -4.54453
lfemur -17.0624 2.06429 -19.3846
ltibia 39.1588
lfoot -9.54157 14.883
ltoes -16.1987
607
root -0.33906 18.1339 -18.09 3.65602 0.859026 5.17731
lowerback 13.0301 0.280494 7.13114
upperback 2.40764 1.77502 7.81184
thorax -4.81495 0.817447 3.9559
lowerneck -28.4504 2.38249 9.83791
upperneck 27.5079 6.61872 -22.2986
head 15.9349 0.774007 -10.2188
rclavicle -4.29375e-014 -8.90555e-014
rhumerus -20.6224 -36.4329 -21.8441
rradius 27.6205
rwrist 5.7655
rhand -25.7063 3.00686
rfingers 7.12502
rthumb 0.829404 -26.9713
lclavicle -4.29375e-014 -8.90555e-014
lhumerus -18.0795 27.5307 32.3083
lradius 38.0675
lwrist 8.08528
lhand -21.8635 -2.90395
lfingers 7.12502
lthumb 4.54055 27.0274
rfemur -14.2183 -4.39208 14.1337
rtibia 33.5842
rfoot -15.6591 -13.4892
rtoes -4.63751
lfemur -17.422 2.20346 -19.1047
ltibia 38.806
lfoot -9.56886 15.0567
ltoes -16.1729
608
root -0.343641 18.1361 -18.0361 3.59244 0.832017 4.97501
lowerback 12.9729 0.22738 7.15931
upperback 2.44044 1.69115 7.69721
thorax -4.74189 0.776264 3.8299
lowerneck -28.4234 2.42358 9.85527
upperneck 27.4881 6.60788 -22.1199
head 15.9005 0.793479 -10.1278
rclavicle 1.51076e-014 6.04305e-014
rhumerus -20.7256 -36.5881 -21.1591
rradius 27.6883
rwrist 5.64289
rhand -25.7432 2.8879
rfingers 7.12502
rthumb 0.793745 -27.0904
lclavicle 1.51076e-014 6.04305e-014
lhumerus -18.4188 27.6659 32.1946
lradius 37.9979
lwrist 8.14701
lhand -21.9241 -2.78725
lfingers 7.12502
lthumb 4.48205 27.1453
rfemur -13.8649 -4.25865 14.38
rtibia 33.3991
rfoot -15.6459 -13.6326
rtoes -4.76258
lfemur -17.7846 2.3342 -18.8026
ltibia 38.4572
lfoot -9.58641 15.2172
ltoes -16.1719
609
root -0.34888 18.1378 -17.9826 3.52874 0.824409 4.73206
lowerback 12.9182 0.166819 7.21419
upperback 2.47194 1.60175 7.58358
thorax -4.67122 0.732036 3.69109
lowerneck -28.3967 2.48189 9.89962
upperneck 27.4762 6.60888 -21.9329
head 15.8732 0.822448 -10.0372
rclavicle 3.18055e-015 9.54166e-015
rhumerus -20.8223 -36.724 -20.4588
rradius 27.7548
rwrist 5.51198
rhand -25.732 2.81605
rfingers 7.12502
rthumb 0.804573 -27.1622
lclavicle 3.18055e-015 9.54166e-015
lhumerus -18.7564 27.8406 32.1117
lradius 37.9263
lwrist 8.19963
lhand -21.9436 -2.70361
lfingers 7.12502
lthumb 4.46322 27.2294
rfemur -13.5106 -4.1469 14.6766
rtibia 33.2067
rfoot -15.6132 -13.781
rtoes -4.90717
lfemur -18.1579 2.47136 -18.4513
ltibia 38.1139
lfoot -9.59342 15.3475
ltoes -16.2079
610
root -0.35434 18.1392 -17.9288 3.45861 0.829145 4.46846
lowerback 12.8767 0.099838 7.27129
upperback 2.49273 1.50715 7.46978
thorax -4.61975 0.68493 3.55199
lowerneck -28.3129 2.55049 9.96574
upperneck 27.4353 6.61171 -21.7409
head 15.8197 0.857945 -9.94147
rclavicle -3.97569e-015 8.5875e-014
rhumerus -20.9034 -36.9036 -19.7324
rradius 27.7974
rwrist 5.43733
rhand -25.6997 2.76215
rfingers 7.12502
rthumb 0.835801 -27.216
lclavicle -3.97569e-015 8.5875e-014
lhumerus -19.1179 28.0128 32.0511
lradius 37.8592
lwrist 8.24661
lhand -21.9305 -2.67064
lfingers 7.12502
lthumb 4.4759 27.2621
rfemur -13.1488 -4.07174 14.9977
rtibia 33.0092
rfoot -15.5558 -13.9225
rtoes -5.07717
lfemur -18.5248 2.60984 -18.0767
ltibia 37.7691
lfoot -9.58227 15.4569
ltoes -16.249
611
root -0.36026 18.1401 -17.8746 3.38196 0.836789 4.19456
lowerback 12.8394 0.0328711 7.31461
upperback 2.50711 1.41196 7.35397
thorax -4.57841 0.637572 3.41869
lowerneck -28.2107 2.6176 10.0423
upperneck 27.4092 6.61109 -21.5485
head 15.7688 0.89406 -9.8502
rclavicle -6.36111e-015 8.90555e-014
rhumerus -20.9777 -37.0802 -18.9893
rradius 27.8344
rwrist 5.36667
rhand -25.647 2.71907
rfingers 7.12502
rthumb 0.886648 -27.2588
lclavicle -6.36111e-015 8.90555e-014
lhumerus -19.4889 28.171 32.0167
lradius 37.7924
lwrist 8.31699
lhand -21.8959 -2.6557
lfingers 7.12502
lthumb 4.50934 27.2763
rfemur -12.7797 -4.01197 15.3333
rtibia 32.8094
rfoot -15.4883 -14.0736
rtoes -5.23723
lfemur -18.8795 2.75677 -17.6907
ltibia 37.4181
lfoot -9.56051 15.5426
ltoes -16.2983
612
root -0.367012 18.1408 -17.8202 3.29835 0.85922 3.92235
lowerback 12.8175 -0.0388325 7.33232
upperback 2.5099 1.31011 7.23242
thorax -4.55881 0.586844 3.29494
lowerneck -28.0848 2.68662 10.1555
upperneck 27.3757 6.60273 -21.3746
head 15.71 0.929914 -9.7756
rclavicle -1.74931e-014 -1.59028e-014
rhumerus -21.0422 -37.2658 -18.2337
rradius 27.8584
rwrist 5.32398
rhand -25.5958 2.67081
rfingers 7.12502
rthumb 0.936146 -27.3069
lclavicle -1.74931e-014 -1.59028e-014
lhumerus -19.8712 28.2997 31.9951
lradius 37.7221
lwrist 8.39173
lhand -21.8213 -2.66418
lfingers 7.12502
lthumb 4.58134 27.2663
rfemur -12.4012 -3.96473 15.6745
rtibia 32.6066
rfoot -15.4062 -14.252
rtoes -5.37826
lfemur -19.2203 2.89595 -17.3038
ltibia 37.0523
lfoot -9.50266 15.6045
ltoes -16.3567
613
root -0.374868 18.1411 -17.7653 3.19818 0.891394 3.66387
lowerback 12.7999 -0.112513 7.30685
upperback 2.50985 1.20051 7.10431
thorax -4.54595 0.532766 3.18967
lowerneck -27.9462 2.73363 10.2304
upperneck 27.3718 6.57171 -21.1616
head 15.6526 0.956657 -9.68224
rclavicle 3.4191e-014 9.85972e-014
rhumerus -21.0975 -37.4779 -17.4674
rradius 27.8666
rwrist 5.35604
rhand -25.5457 2.63026
rfingers 7.12502
rthumb 0.984568 -27.3472
lclavicle 3.4191e-014 9.85972e-014
lhumerus -20.2464 28.4284 31.9899
lradius 37.632
lwrist 8.43715
lhand -21.7564 -2.64774
lfingers 7.12502
lthumb 4.64397 27.2814
rfemur -11.9989 -3.91697 16.0082
rtibia 32.4001
rfoot -15.3264 -14.4637
rtoes -5.47087
lfemur -19.5331 3.03011 -16.9291
ltibia 36.6727
lfoot -9.40476 15.6384
ltoes -16.4098
614
root -0.383998 18.1415 -17.7097 3.08196 0.927711 3.41699
lowerback 12.7884 -0.182714 7.23903
upperback 2.51216 1.09009 6.97
thorax -4.53502 0.478843 3.1016
lowerneck -27.8656 2.79385 10.3543
upperneck 27.4206 6.55226 -20.9756
head 15.64 0.988518 -9.62049
rclavicle -3.97569e-015 3.18055e-015
rhumerus -21.1428 -37.7666 -16.689
rradius 27.8537
rwrist 5.4662
rhand -25.5377 2.57698
rfingers 7.12502
rthumb 0.992213 -27.4005
lclavicle -3.97569e-015 3.18055e-015
lhumerus -20.6076 28.5355 32.0018
lradius 37.5317
lwrist 8.47026
lhand -21.6857 -2.61539
lfingers 7.12502
lthumb 4.71225 27.3122
rfemur -11.5723 -3.85927 16.3403
rtibia 32.1858
rfoot -15.242 -14.7202
rtoes -5.54396
lfemur -19.818 3.15934 -16.5626
ltibia 36.2803
lfoot -9.28098 15.6548
ltoes -16.4823
615
root -0.395212 18.1412 -17.6548 2.95143 0.967264 3.15365
lowerback 12.789 -0.248668 7.1538
upperback 2.52524 0.983363 6.83512
thorax -4.52 0.427139 3.02209
lowerneck -27.8179 2.84568 10.4631
upperneck 27.4832 6.51545 -20.7561
head 15.6343 1.0139 -9.54587
rclavicle -1.27222e-014 -4.13472e-014
rhumerus -21.1848 -38.0126 -15.93
rradius 27.8634
rwrist 5.49903
rhand -25.572 2.46816
rfingers 7.12502
rthumb 0.959124 -27.5094
lclavicle -1.27222e-014 -4.13472e-014
lhumerus -20.9197 28.6604 32.0367
lradius 37.4068
lwrist 8.46885
lhand -21.6208 -2.57794
lfingers 7.12502
lthumb 4.77492 27.3483
rfemur -11.125 -3.76026 16.7088
rtibia 31.9589
rfoot -15.1615 -15.0386
rtoes -5.56501
lfemur -20.0863 3.28278 -16.1691
ltibia 35.8825
lfoot -9.13731 15.6497
ltoes -16.5546
616
root -0.408054 18.1403 -17.5996 2.80195 1.00835 2.89508
lowerback 12.799 -0.308266 7.03026
upperback 2.54997 0.879723 6.69655
thorax -4.49852 0.37766 2.95957
lowerneck -27.7872 2.91159 10.5962
upperneck 27.5633 6.48818 -20.5311
head 15.6435 1.04649 -9.47476
rclavicle 5.56597e-015 9.54166e-015
rhumerus -21.2161 -38.2707 -15.1892
rradius 27.8821
rwrist 5.499
rhand -25.6572 2.31387
rfingers 7.12502
rthumb 0.876838 -27.6641
lclavicle 5.56597e-015 9.54166e-015
lhumerus -21.1971 28.7857 32.092
lradius 37.2758
lwrist 8.44759
lhand -21.5666 -2.5567
lfingers 7.12502
lthumb 4.82724 27.3683
rfemur -10.6454 -3.63959 17.0858
rtibia 31.7149
rfoot -15.078 -15.4005
rtoes -5.57448
lfemur -20.3287 3.40456 -15.7751
ltibia 35.4846
lfoot -8.9985 15.6253
ltoes -16.6118
